<svg width="1024" height="1024" viewBox="0 0 1024 1024" fill="none" xmlns="http://www.w3.org/2000/svg">
  <rect width="1024" height="1024" rx="224" fill="#3B82F6"/>
  <path d="M512 256C370.6 256 256 370.6 256 512s114.6 256 256 256 256-114.6 256-256-114.6-256-256-256zm128 298.7h-85.3V640c0 23.6-19.1 42.7-42.7 42.7s-42.7-19.1-42.7-42.7v-85.3H384c-23.6 0-42.7-19.1-42.7-42.7s19.1-42.7 42.7-42.7h85.3V384c0-23.6 19.1-42.7 42.7-42.7s42.7 19.1 42.7 42.7v85.3H640c23.6 0 42.7 19.1 42.7 42.7s-19.1 42.7-42.7 42.7z" fill="white"/>
  <text x="512" y="850" font-family="Arial, sans-serif" font-size="120" font-weight="bold" text-anchor="middle" fill="white">RAID</text>
</svg>